<svg width="280" height="174" viewBox="0 0 280 174" fill="none" xmlns="http://www.w3.org/2000/svg">
<rect width="280" height="174" rx="30" fill="#4A56E2"/>
<path d="M22.4 119.565L0 142.88V154C0 165.046 8.95431 174 20 174H250C266.569 174 280 160.569 280 144V101.177C278.98 100.542 277.495 100.33 276.864 100.28C271.954 99.8929 269.138 103.584 265.216 107.005L265.167 107.048C264.008 108.06 261.108 110.592 255.808 110.592C250.432 110.592 246.699 108.201 245.504 107.005L227.584 88.1739C225.195 85.7826 219.968 81 214.144 81C208.32 81 203.691 85.7826 201.6 88.1739L118.72 168.437C117.376 169.931 113.254 172.92 107.52 172.92C101.786 172.92 97.664 169.931 96.32 168.437L48.384 117.323C46.7413 115.529 41.9328 111.942 35.84 111.942C29.7472 111.942 24.3413 117.024 22.4 119.565Z" fill="url(#paint0_linear_34968_5)" fill-opacity="0.2"/>
<path opacity="0.2" d="M0 30C0 13.4315 13.4315 0 30 0H250C266.569 0 280 13.4315 280 30V50H0V30Z" fill="white"/>
<defs>
<linearGradient id="paint0_linear_34968_5" x1="140" y1="72.9342" x2="140" y2="189.081" gradientUnits="userSpaceOnUse">
<stop stop-color="white"/>
<stop offset="1" stop-color="white" stop-opacity="0"/>
</linearGradient>
</defs>
</svg>
