<svg width="336" height="182" viewBox="0 0 336 182" fill="none" xmlns="http://www.w3.org/2000/svg">
<rect width="336" height="182" rx="30" fill="#4A56E2"/>
<path d="M26.88 112.346L0 142.179V162C0 173.046 8.95431 182 20 182H306C322.569 182 336 168.569 336 152V88.8173C334.776 88.0049 332.993 87.7335 332.237 87.6699C326.345 87.1747 322.966 91.8979 318.259 96.2757L318.201 96.33C316.81 97.6252 313.33 100.865 306.97 100.865C300.518 100.865 296.038 97.8056 294.605 96.2757L273.101 72.1795C270.234 69.1197 263.962 63 256.973 63C249.984 63 244.429 69.1197 241.92 72.1795L142.464 174.881C140.851 176.794 135.905 180.618 129.024 180.618C122.143 180.618 117.197 176.794 115.584 174.881L58.0608 109.477C56.0896 107.183 50.3194 102.593 43.008 102.593C35.6966 102.593 29.2096 109.095 26.88 112.346Z" fill="url(#paint0_linear_34968_4)" fill-opacity="0.2"/>
<path opacity="0.2" d="M0 30C0 13.4315 13.4315 0 30 0H306C322.569 0 336 13.4315 336 30V50H0V30Z" fill="white"/>
<defs>
<linearGradient id="paint0_linear_34968_4" x1="168" y1="52.6793" x2="168" y2="201.297" gradientUnits="userSpaceOnUse">
<stop stop-color="white"/>
<stop offset="1" stop-color="white" stop-opacity="0"/>
</linearGradient>
</defs>
</svg>
