<svg width="393" height="331" viewBox="0 0 393 331" fill="none" xmlns="http://www.w3.org/2000/svg">
<rect width="393" height="331" rx="30" fill="#4A56E2"/>
<path d="M31.44 255.104L0 280.559V311C0 322.046 8.9543 331 20 331H363C379.569 331 393 317.569 393 301V235.028C391.568 234.335 389.483 234.103 388.598 234.049C381.707 233.627 377.754 237.657 372.25 241.392L372.181 241.438C370.554 242.543 366.484 245.308 359.045 245.308C351.499 245.308 346.259 242.697 344.582 241.392L319.43 220.832C316.077 218.222 308.741 213 300.566 213C292.392 213 285.894 218.222 282.96 220.832L166.632 308.461C164.746 310.093 158.961 313.356 150.912 313.356C142.863 313.356 137.078 310.093 135.192 308.461L67.9104 252.656C65.6048 250.698 58.8557 246.782 50.304 246.782C41.7523 246.782 34.1648 252.33 31.44 255.104Z" fill="url(#paint0_linear_34968_3)" fill-opacity="0.2"/>
<path opacity="0.2" d="M0 30C0 13.4315 13.4315 0 30 0H363C379.569 0 393 13.4315 393 30V60H0V30Z" fill="white"/>
<defs>
<linearGradient id="paint0_linear_34968_3" x1="196.5" y1="204.194" x2="196.5" y2="331" gradientUnits="userSpaceOnUse">
<stop stop-color="white"/>
<stop offset="1" stop-color="white" stop-opacity="0"/>
</linearGradient>
</defs>
</svg>
